<?xml version="1.0" encoding="UTF-8" standalone="no"?>
<svg
   xmlns:dc="http://purl.org/dc/elements/1.1/"
   xmlns:cc="http://creativecommons.org/ns#"
   xmlns:rdf="http://www.w3.org/1999/02/22-rdf-syntax-ns#"
   xmlns:svg="http://www.w3.org/2000/svg"
   xmlns="http://www.w3.org/2000/svg"
   viewBox="0 0 75.59053 21.172001"
   height="21.172001"
   width="75.59053"
   xml:space="preserve"
   id="svg2"
   version="1.1"><metadata
     id="metadata8"><rdf:RDF><cc:Work
         rdf:about=""><dc:format>image/svg+xml</dc:format><dc:type
           rdf:resource="http://purl.org/dc/dcmitype/StillImage" /></cc:Work></rdf:RDF></metadata><defs
     id="defs6"><clipPath
       id="clipPath18"
       clipPathUnits="userSpaceOnUse"><path
         id="path16"
         d="M 0,15.879 H 56.693 V 0 H 0 Z" /></clipPath></defs><g
     transform="matrix(1.3333333,0,0,-1.3333333,0,21.172)"
     id="g10"><g
       id="g12"><g
         clip-path="url(#clipPath18)"
         id="g14"><g
           transform="translate(5.2495,12.2091)"
           id="g20"><path
             id="path22"
             style="fill:#000000;fill-opacity:1;fill-rule:nonzero;stroke:none"
             d="m 0,0 c 0.176,0 0.328,-0.014 0.456,-0.042 0.127,-0.028 0.242,-0.084 0.342,-0.168 0.1,-0.084 0.196,-0.206 0.288,-0.366 0.092,-0.16 0.194,-0.376 0.306,-0.648 l 1.644,-4.104 1.572,4.093 c 0.096,0.263 0.19,0.475 0.282,0.635 0.092,0.161 0.192,0.285 0.3,0.372 0.108,0.088 0.228,0.148 0.36,0.18 C 5.682,-0.016 5.836,0 6.012,0 h 0.252 c 0.384,0 0.65,-0.071 0.798,-0.216 0.148,-0.143 0.222,-0.404 0.222,-0.78 v -7.008 c 0,-0.216 -0.072,-0.374 -0.216,-0.474 -0.144,-0.1 -0.316,-0.15 -0.516,-0.15 -0.184,0 -0.35,0.05 -0.498,0.15 -0.148,0.1 -0.222,0.258 -0.222,0.474 v 6.66 C 5.76,-1.647 5.692,-1.897 5.628,-2.094 5.564,-2.29 5.5,-2.472 5.436,-2.64 L 3.852,-6.54 C 3.748,-6.796 3.638,-6.966 3.522,-7.05 3.406,-7.133 3.244,-7.176 3.036,-7.176 c -0.248,0 -0.434,0.047 -0.558,0.138 -0.124,0.092 -0.238,0.27 -0.342,0.534 L 0.588,-2.64 C 0.524,-2.479 0.46,-2.3 0.396,-2.1 0.332,-1.899 0.256,-1.647 0.168,-1.344 v -6.66 c 0,-0.216 -0.074,-0.374 -0.222,-0.474 -0.148,-0.1 -0.318,-0.15 -0.51,-0.15 -0.184,0 -0.348,0.05 -0.492,0.15 -0.144,0.1 -0.216,0.258 -0.216,0.474 v 7.008 c 0,0.376 0.074,0.637 0.222,0.78 C -0.902,-0.071 -0.636,0 -0.252,0 Z" /></g><g
           transform="translate(19.5894,12.1856)"
           id="g24"><path
             id="path26"
             style="fill:#000000;fill-opacity:1;fill-rule:nonzero;stroke:none"
             d="M 0,0 C 0.184,0 0.318,-0.062 0.402,-0.187 0.486,-0.311 0.528,-0.46 0.528,-0.637 0.528,-0.805 0.486,-0.952 0.402,-1.08 0.318,-1.208 0.184,-1.272 0,-1.272 H -3.588 V -3.54 h 3.348 c 0.176,0 0.306,-0.063 0.39,-0.187 0.084,-0.124 0.126,-0.269 0.126,-0.437 0,-0.168 -0.042,-0.315 -0.126,-0.439 -0.084,-0.124 -0.214,-0.185 -0.39,-0.185 H -3.588 V -7.26 h 3.672 c 0.184,0 0.318,-0.064 0.402,-0.192 C 0.57,-7.58 0.612,-7.729 0.612,-7.896 0.612,-8.072 0.57,-8.222 0.486,-8.346 0.402,-8.47 0.268,-8.532 0.084,-8.532 h -4.176 c -0.384,0 -0.65,0.072 -0.798,0.216 -0.148,0.144 -0.222,0.404 -0.222,0.78 v 6.54 c 0,0.376 0.074,0.636 0.222,0.779 C -4.742,-0.072 -4.476,0 -4.092,0 Z" /></g><g
           transform="translate(23.2974,4.9493)"
           id="g28"><path
             id="path30"
             style="fill:#000000;fill-opacity:1;fill-rule:nonzero;stroke:none"
             d="M 0,0 H 1.272 C 1.712,0 2.086,0.049 2.394,0.145 2.702,0.24 2.954,0.4 3.15,0.624 3.346,0.848 3.488,1.142 3.576,1.506 3.664,1.87 3.708,2.324 3.708,2.868 V 3.072 C 3.708,3.607 3.664,4.06 3.576,4.428 3.488,4.796 3.346,5.092 3.15,5.316 2.954,5.54 2.702,5.7 2.394,5.796 2.086,5.892 1.712,5.94 1.272,5.94 H 0 Z M 1.476,7.236 C 2.1,7.236 2.646,7.162 3.114,7.014 3.582,6.866 3.976,6.63 4.296,6.306 4.616,5.982 4.856,5.563 5.016,5.052 5.176,4.54 5.256,3.92 5.256,3.192 V 2.748 C 5.256,2.02 5.176,1.399 5.016,0.888 4.856,0.376 4.616,-0.042 4.296,-0.366 3.976,-0.689 3.582,-0.926 3.114,-1.074 2.646,-1.222 2.1,-1.296 1.476,-1.296 h -1.98 c -0.384,0 -0.65,0.072 -0.798,0.216 -0.148,0.144 -0.222,0.404 -0.222,0.78 v 6.54 c 0,0.376 0.074,0.636 0.222,0.78 0.148,0.144 0.414,0.216 0.798,0.216 z" /></g><g
           transform="translate(30.9414,12.2569)"
           id="g32"><path
             id="path34"
             style="fill:#000000;fill-opacity:1;fill-rule:nonzero;stroke:none"
             d="M 0,0 C 0.208,0 0.388,-0.052 0.54,-0.155 0.691,-0.26 0.768,-0.428 0.768,-0.659 V -8.016 C 0.768,-8.247 0.691,-8.415 0.54,-8.52 0.388,-8.623 0.208,-8.676 0,-8.676 c -0.208,0 -0.388,0.053 -0.54,0.156 -0.152,0.105 -0.228,0.273 -0.228,0.504 v 7.357 c 0,0.231 0.076,0.399 0.228,0.504 C -0.388,-0.052 -0.208,0 0,0" /></g><g
           transform="translate(34.4219,12.2569)"
           id="g36"><path
             id="path38"
             style="fill:#000000;fill-opacity:1;fill-rule:nonzero;stroke:none"
             d="M 0,0 C 0.207,0 0.388,-0.052 0.539,-0.155 0.691,-0.26 0.768,-0.428 0.768,-0.659 v -3.313 l 3.515,3.781 C 4.42,-0.048 4.581,0.017 4.77,0 4.957,-0.016 5.115,-0.092 5.243,-0.228 5.38,-0.363 5.457,-0.521 5.478,-0.701 5.497,-0.882 5.439,-1.04 5.304,-1.176 L 2.64,-3.947 5.579,-7.451 C 5.739,-7.636 5.804,-7.819 5.771,-8.003 5.739,-8.188 5.64,-8.348 5.472,-8.483 5.312,-8.611 5.136,-8.677 4.943,-8.682 4.752,-8.686 4.584,-8.596 4.439,-8.411 L 1.644,-4.92 0.768,-5.819 V -8.016 C 0.768,-8.247 0.691,-8.415 0.539,-8.52 0.388,-8.623 0.207,-8.676 0,-8.676 c -0.209,0 -0.389,0.053 -0.54,0.156 -0.152,0.105 -0.229,0.273 -0.229,0.504 v 7.357 c 0,0.231 0.077,0.399 0.229,0.504 C -0.389,-0.052 -0.209,0 0,0" /></g><g
           transform="translate(52.1748,12.1856)"
           id="g40"><path
             id="path42"
             style="fill:#000000;fill-opacity:1;fill-rule:nonzero;stroke:none"
             d="M 0,0 C 0.184,0 0.32,-0.064 0.408,-0.192 0.496,-0.32 0.54,-0.473 0.54,-0.648 0.54,-0.824 0.496,-0.977 0.408,-1.104 0.32,-1.232 0.184,-1.296 0,-1.296 h -2.063 v -6.648 c 0,-0.232 -0.077,-0.4 -0.229,-0.504 -0.152,-0.104 -0.332,-0.156 -0.54,-0.156 -0.208,0 -0.388,0.052 -0.54,0.156 -0.152,0.104 -0.228,0.272 -0.228,0.504 v 6.648 h -2.076 c -0.184,0 -0.32,0.064 -0.408,0.192 -0.088,0.127 -0.132,0.28 -0.132,0.456 0,0.175 0.044,0.328 0.132,0.456 C -5.996,-0.064 -5.86,0 -5.676,0 Z" /></g><g
           transform="translate(42.501,7.3267)"
           id="g44"><path
             id="path46"
             style="fill:#000000;fill-opacity:1;fill-rule:nonzero;stroke:none"
             d="M 0,0 C 0.002,-0.022 0.001,-0.034 0.004,-0.044 0.183,-0.792 0.345,-1.545 0.546,-2.287 0.792,-3.19 1.779,-3.626 2.626,-3.23 3.271,-2.928 3.602,-2.225 3.433,-1.496 3.271,-0.793 3.1,-0.093 2.933,0.608 2.926,0.636 2.914,0.663 2.904,0.692 1.934,0.46 0.971,0.231 0,0 M 2.798,1.173 C 2.788,1.215 2.781,1.243 2.774,1.271 2.653,1.779 2.534,2.287 2.411,2.793 2.35,3.048 2.298,3.307 2.216,3.556 1.973,4.292 1.182,4.713 0.434,4.518 -0.335,4.317 -0.828,3.565 -0.666,2.799 -0.505,2.039 -0.312,1.286 -0.134,0.53 -0.13,0.514 -0.119,0.499 -0.111,0.48 0.857,0.711 1.821,0.94 2.798,1.173 M 3.315,1.042 C 3.519,0.188 3.731,-0.662 3.922,-1.518 4.119,-2.401 3.604,-3.356 2.766,-3.702 1.75,-4.121 0.638,-3.692 0.183,-2.701 0.124,-2.575 0.081,-2.438 0.049,-2.303 -0.341,-0.68 -0.729,0.944 -1.112,2.568 -1.343,3.54 -0.88,4.488 0.009,4.88 1.027,5.329 2.231,4.835 2.637,3.8 2.683,3.684 2.718,3.562 2.747,3.44 2.939,2.641 3.129,1.842 3.319,1.042 c -0.002,0 -0.003,0 -0.004,0" /></g><g
           transform="translate(42.501,7.3267)"
           id="g48"><path
             id="path50"
             style="fill:none;stroke:#231815;stroke-width:0.5;stroke-linecap:butt;stroke-linejoin:miter;stroke-miterlimit:10;stroke-dasharray:none;stroke-opacity:1"
             d="M 0,0 C 0.002,-0.022 0.001,-0.034 0.004,-0.044 0.183,-0.792 0.345,-1.545 0.546,-2.287 0.792,-3.19 1.779,-3.626 2.626,-3.23 3.271,-2.928 3.602,-2.225 3.433,-1.496 3.271,-0.793 3.1,-0.093 2.933,0.608 2.926,0.636 2.914,0.663 2.904,0.692 1.934,0.46 0.971,0.231 0,0 Z M 2.798,1.173 C 2.788,1.215 2.781,1.243 2.774,1.271 2.653,1.779 2.534,2.287 2.411,2.793 2.35,3.048 2.298,3.307 2.216,3.556 1.973,4.292 1.182,4.713 0.434,4.518 -0.335,4.317 -0.828,3.565 -0.666,2.799 -0.505,2.039 -0.312,1.286 -0.134,0.53 -0.13,0.514 -0.119,0.499 -0.111,0.48 0.857,0.711 1.821,0.94 2.798,1.173 Z M 3.315,1.042 C 3.519,0.188 3.731,-0.662 3.922,-1.518 4.119,-2.401 3.604,-3.356 2.766,-3.702 1.75,-4.121 0.638,-3.692 0.183,-2.701 0.124,-2.575 0.081,-2.438 0.049,-2.303 -0.341,-0.68 -0.729,0.944 -1.112,2.568 -1.343,3.54 -0.88,4.488 0.009,4.88 1.027,5.329 2.231,4.835 2.637,3.8 2.683,3.684 2.718,3.562 2.747,3.44 2.939,2.641 3.129,1.842 3.319,1.042 c -0.002,0 -0.003,0 -0.004,0 z" /></g></g></g></g></svg>