<?xml version="1.0" standalone="no"?>
<!DOCTYPE svg PUBLIC "-//W3C//DTD SVG 20010904//EN"
 "http://www.w3.org/TR/2001/REC-SVG-20010904/DTD/svg10.dtd">
<svg version="1.0" xmlns="http://www.w3.org/2000/svg"
 width="242.000000pt" height="206.000000pt" viewBox="0 0 242.000000 206.000000"
 preserveAspectRatio="xMidYMid meet">
<metadata>
Created by potrace 1.10, written by Peter Selinger 2001-2011
</metadata>
<g transform="translate(0.000000,206.000000) scale(0.100000,-0.100000)"
fill="#000000" stroke="none">
<path d="M1137 2047 c-15 -7 -266 -221 -559 -477 -367 -321 -535 -475 -544
-497 -19 -44 -18 -72 4 -112 31 -57 70 -71 199 -71 l113 0 0 -420 0 -421 25
-24 24 -25 236 0 235 0 0 318 c0 299 1 319 20 350 41 67 61 72 295 72 234 0
254 -5 295 -72 19 -31 20 -51 20 -350 l0 -318 235 0 236 0 24 25 25 24 0 421
0 420 113 0 c129 0 168 14 199 71 43 80 23 115 -148 265 l-144 126 0 203 0
204 -26 20 c-23 18 -41 21 -129 21 -134 0 -148 -10 -155 -105 l-5 -67 -230
202 c-266 234 -288 247 -358 217z"/>
</g>
</svg>
