<?xml version="1.0" standalone="no"?>
<!DOCTYPE svg PUBLIC "-//W3C//DTD SVG 20010904//EN"
 "http://www.w3.org/TR/2001/REC-SVG-20010904/DTD/svg10.dtd">
<svg version="1.0" xmlns="http://www.w3.org/2000/svg"
 width="242.000000pt" height="242.000000pt" viewBox="0 0 242.000000 242.000000"
 preserveAspectRatio="xMidYMid meet">
<metadata>
Created by potrace 1.10, written by Peter Selinger 2001-2011
</metadata>
<g transform="translate(0.000000,242.000000) scale(0.100000,-0.100000)"
fill="#000000" stroke="none">
<path d="M1153 2366 c-103 -47 -202 -226 -268 -485 -37 -142 -39 -136 53 -152
103 -19 441 -19 545 0 91 16 89 10 53 151 -46 177 -89 283 -158 382 -69 98
-152 137 -225 104z"/>
<path d="M947 2326 c-165 -68 -333 -220 -431 -387 l-26 -46 67 -36 c62 -32
202 -87 222 -87 5 0 19 44 31 98 41 176 105 334 176 435 19 26 31 47 26 47 -4
0 -33 -11 -65 -24z"/>
<path d="M1433 2303 c72 -101 136 -258 177 -435 12 -54 26 -98 31 -98 18 0
158 55 222 87 l68 34 -27 47 c-63 109 -186 242 -287 311 -47 32 -151 83 -195
96 -22 6 -21 4 11 -42z"/>
<path d="M718 2306 c-109 -48 -235 -133 -324 -218 l-75 -73 49 -37 c27 -21 53
-38 58 -38 5 0 31 35 59 78 58 90 196 233 275 285 68 46 57 46 -42 3z"/>
<path d="M1685 2283 c97 -72 190 -172 252 -270 26 -40 51 -73 56 -73 5 0 32
17 59 38 l49 37 -75 73 c-85 81 -195 156 -301 206 -115 55 -124 52 -40 -11z"/>
<path d="M263 1947 c-61 -68 -154 -242 -192 -357 -25 -80 -47 -183 -56 -272
l-7 -68 120 0 121 0 5 58 c21 203 62 374 122 511 13 29 24 54 24 56 0 1 -27
22 -59 48 l-59 45 -19 -21z"/>
<path d="M2080 1924 c-30 -24 -54 -50 -53 -57 1 -7 18 -54 38 -106 47 -120 72
-221 86 -335 6 -50 13 -110 15 -133 l5 -43 120 0 121 0 -7 68 c-22 222 -128
493 -240 617 l-30 34 -55 -45z"/>
<path d="M451 1818 c-5 -13 -18 -44 -30 -71 -44 -101 -79 -261 -96 -434 l-6
-63 209 0 209 0 7 128 c4 70 13 171 20 226 11 87 10 99 -3 103 -71 24 -206 81
-248 105 l-53 29 -9 -23z"/>
<path d="M1890 1804 c-54 -28 -153 -70 -231 -97 -13 -4 -14 -16 -3 -103 7 -55
16 -156 20 -226 l7 -128 209 0 209 0 -6 63 c-12 122 -26 203 -50 292 -24 88
-70 214 -83 226 -4 4 -36 -9 -72 -27z"/>
<path d="M836 1628 c-14 -116 -25 -256 -26 -315 l0 -63 402 0 401 0 -6 122
c-7 121 -26 300 -33 307 -2 2 -52 -5 -111 -15 -136 -22 -381 -23 -503 0 -122
22 -117 24 -124 -36z"/>
<path d="M15 1118 c17 -166 55 -299 128 -443 39 -78 109 -189 125 -199 5 -3
36 16 69 41 l61 46 -23 51 c-59 134 -100 307 -121 509 l-5 57 -121 0 -120 0 7
-62z"/>
<path d="M325 1118 c18 -179 50 -322 101 -448 14 -36 27 -66 29 -68 1 -1 44
18 95 43 52 25 123 55 159 66 l67 21 -13 97 c-6 53 -15 153 -19 224 l-7 127
-209 0 -209 0 6 -62z"/>
<path d="M813 1058 c6 -109 25 -299 31 -305 1 -2 38 5 82 14 116 24 417 23
547 -1 54 -10 100 -16 102 -14 6 6 25 188 32 306 l6 122 -403 0 -403 0 6 -122z"/>
<path d="M1676 1058 c-5 -100 -19 -246 -29 -316 -1 -8 36 -28 93 -51 53 -20
122 -52 155 -69 32 -18 62 -29 66 -25 11 13 60 143 80 213 22 74 44 203 53
303 l7 67 -209 0 -209 0 -7 -122z"/>
<path d="M2166 1123 c-21 -207 -54 -346 -118 -501 -17 -40 -29 -74 -27 -75 2
-1 28 -22 57 -46 61 -50 62 -50 125 43 110 162 181 361 202 569 l7 67 -120 0
-121 0 -5 -57z"/>
<path d="M1030 720 c-41 -6 -98 -15 -126 -20 l-51 -11 20 -92 c26 -122 85
-289 131 -370 46 -83 115 -153 167 -168 120 -36 240 99 328 368 38 116 69 248
60 257 -2 3 -45 12 -94 21 -111 19 -334 27 -435 15z"/>
<path d="M715 649 c-77 -26 -225 -95 -225 -105 0 -13 53 -98 95 -154 52 -68
154 -165 218 -209 47 -32 151 -83 195 -96 22 -6 21 -4 -11 42 -74 103 -146
285 -183 461 -10 45 -20 82 -23 82 -3 -1 -33 -10 -66 -21z"/>
<path d="M1610 563 c-41 -178 -105 -335 -177 -436 -32 -46 -33 -48 -11 -42 44
13 148 64 195 96 101 69 224 202 286 310 l27 46 -85 42 c-77 38 -186 81 -205
81 -4 0 -18 -44 -30 -97z"/>
<path d="M371 468 c-28 -21 -51 -43 -51 -47 0 -17 155 -154 228 -202 74 -49
191 -109 242 -124 14 -4 -11 19 -55 52 -100 74 -182 163 -255 274 l-57 87 -52
-40z"/>
<path d="M1937 415 c-66 -101 -156 -197 -252 -268 -44 -33 -69 -56 -55 -52 51
15 168 75 242 123 71 47 218 176 218 192 0 8 -89 80 -99 80 -3 0 -28 -34 -54
-75z"/>
</g>
</svg>
