<?xml version="1.0" standalone="no"?>
<!DOCTYPE svg PUBLIC "-//W3C//DTD SVG 20010904//EN"
 "http://www.w3.org/TR/2001/REC-SVG-20010904/DTD/svg10.dtd">
<svg version="1.0" xmlns="http://www.w3.org/2000/svg"
 width="242.000000pt" height="253.000000pt" viewBox="0 0 242.000000 253.000000"
 preserveAspectRatio="xMidYMid meet">
<metadata>
Created by potrace 1.10, written by Peter Selinger 2001-2011
</metadata>
<g transform="translate(0.000000,253.000000) scale(0.100000,-0.100000)"
fill="#000000" stroke="none">
<path d="M1072 2210 c-156 -41 -292 -148 -364 -286 -121 -230 -82 -492 101
-675 119 -118 240 -169 406 -169 167 0 288 51 405 169 184 185 223 444 102
675 -120 231 -396 352 -650 286z"/>
<path d="M1022 929 c-260 -25 -531 -166 -691 -361 -122 -149 -218 -355 -236
-510 l-7 -58 1127 0 1127 0 -7 57 c-18 156 -114 362 -236 511 -119 145 -338
284 -523 332 -143 36 -360 48 -554 29z"/>
</g>
</svg>
